<svg width="266" height="28" viewBox="0 0 266 28" fill="none" xmlns="http://www.w3.org/2000/svg">
<path d="M16.2116 2.15H21.7066V27H16.6316L5.6066 11.565V27H0.111602V2.15H5.1866L16.2116 17.585V2.15ZM43.6158 9.255V27H38.2258L38.4008 24.34C37.1174 26.3467 35.2158 27.35 32.6958 27.35C31.1091 27.35 29.7558 26.9883 28.6358 26.265C27.5158 25.5417 26.6641 24.5383 26.0808 23.255C25.4974 21.9717 25.2058 20.5017 25.2058 18.845C25.2058 16.8617 25.6141 15.1233 26.4308 13.63C27.2474 12.1367 28.3441 10.9817 29.7208 10.165C31.0974 9.325 32.6374 8.905 34.3408 8.905C35.4608 8.905 36.4524 9.13833 37.3158 9.605C38.1791 10.0483 38.8441 10.6433 39.3108 11.39L39.7658 9.255H43.6158ZM34.8658 13.56C33.5824 13.56 32.5674 14.0383 31.8208 14.995C31.0974 15.9517 30.7358 17.1767 30.7358 18.67C30.7358 19.9533 31.0158 20.945 31.5758 21.645C32.1591 22.345 32.9408 22.695 33.9208 22.695C35.1108 22.695 36.1258 22.205 36.9658 21.225C37.8291 20.245 38.2608 18.9617 38.2608 17.375C38.2608 16.185 37.9574 15.2517 37.3508 14.575C36.7441 13.8983 35.9158 13.56 34.8658 13.56ZM32.9408 6.945L37.2108 0.749998L42.6708 2.08L37.6308 6.945H32.9408ZM65.2515 1.1V27H59.8615L60.0365 24.375C58.7532 26.3583 56.8515 27.35 54.3315 27.35C52.7449 27.35 51.3915 26.9883 50.2715 26.265C49.1515 25.5417 48.2999 24.5383 47.7165 23.255C47.1332 21.9717 46.8415 20.5017 46.8415 18.845C46.8415 16.8617 47.2499 15.1233 48.0665 13.63C48.8832 12.1367 49.9799 10.9817 51.3565 10.165C52.7332 9.325 54.2732 8.905 55.9765 8.905C56.7699 8.905 57.5049 9.02167 58.1815 9.255C58.8582 9.48833 59.4415 9.815 59.9315 10.235L59.8965 9.185V1.1H65.2515ZM56.5015 13.56C55.2182 13.56 54.2032 14.0383 53.4565 14.995C52.7332 15.9517 52.3715 17.1767 52.3715 18.67C52.3715 19.9533 52.6515 20.945 53.2115 21.645C53.7949 22.345 54.5765 22.695 55.5565 22.695C56.7465 22.695 57.7615 22.205 58.6015 21.225C59.4649 20.245 59.8965 18.9617 59.8965 17.375C59.8965 16.185 59.5932 15.2517 58.9865 14.575C58.3799 13.8983 57.5515 13.56 56.5015 13.56ZM74.7423 9.185V27H69.3873V9.185H74.7423ZM72.0473 7.085C71.0206 7.085 70.2039 6.77 69.5973 6.14C68.9906 5.51 68.6873 4.76333 68.6873 3.9C68.6873 3.03667 68.9789 2.29 69.5623 1.66C70.1689 1.03 70.9973 0.714998 72.0473 0.714998C73.0739 0.714998 73.8906 1.03 74.4973 1.66C75.1039 2.29 75.4073 3.03667 75.4073 3.9C75.4073 4.76333 75.1039 5.51 74.4973 6.14C73.8906 6.77 73.0739 7.085 72.0473 7.085ZM96.3209 9.255V27H90.9309L91.1059 24.34C89.8225 26.3467 87.9209 27.35 85.4009 27.35C83.8142 27.35 82.4609 26.9883 81.3409 26.265C80.2209 25.5417 79.3692 24.5383 78.7859 23.255C78.2025 21.9717 77.9109 20.5017 77.9109 18.845C77.9109 16.8617 78.3192 15.1233 79.1359 13.63C79.9525 12.1367 81.0492 10.9817 82.4259 10.165C83.8025 9.325 85.3425 8.905 87.0459 8.905C88.1659 8.905 89.1575 9.13833 90.0209 9.605C90.8842 10.0483 91.5492 10.6433 92.0159 11.39L92.4709 9.255H96.3209ZM87.5709 13.56C86.2875 13.56 85.2725 14.0383 84.5259 14.995C83.8025 15.9517 83.4409 17.1767 83.4409 18.67C83.4409 19.9533 83.7209 20.945 84.2809 21.645C84.8642 22.345 85.6459 22.695 86.6259 22.695C87.8159 22.695 88.8309 22.205 89.6709 21.225C90.5342 20.245 90.9659 18.9617 90.9659 17.375C90.9659 16.185 90.6625 15.2517 90.0559 14.575C89.4492 13.8983 88.6209 13.56 87.5709 13.56ZM130.275 21.645L131.605 26.055C131.092 26.4517 130.427 26.7667 129.61 27C128.817 27.2333 128 27.35 127.16 27.35C125.643 27.35 124.313 27.0467 123.17 26.44C122.027 25.81 121.082 24.9 120.335 23.71L117.36 18.95C117.01 18.39 116.66 18.005 116.31 17.795C115.983 17.5617 115.598 17.4333 115.155 17.41V27H109.555V2.15H117.71C121.14 2.15 123.707 2.83833 125.41 4.215C127.137 5.59167 128 7.49333 128 9.92C128 11.8333 127.405 13.3967 126.215 14.61C125.048 15.8233 123.543 16.6167 121.7 16.99C122.47 17.3633 123.147 17.9817 123.73 18.845L124.92 20.665C125.667 21.785 126.647 22.345 127.86 22.345C128.303 22.345 128.723 22.2983 129.12 22.205C129.517 22.0883 129.902 21.9017 130.275 21.645ZM117.395 6.805H115.155V12.965H117.36C119.11 12.965 120.37 12.72 121.14 12.23C121.91 11.7167 122.295 10.9233 122.295 9.85C122.295 8.77667 121.863 8.00667 121 7.54C120.137 7.05 118.935 6.805 117.395 6.805ZM140.858 27.35C138.874 27.35 137.159 26.9883 135.713 26.265C134.266 25.5183 133.146 24.48 132.353 23.15C131.559 21.7967 131.163 20.1983 131.163 18.355C131.163 16.4883 131.559 14.8433 132.353 13.42C133.169 11.9967 134.254 10.8883 135.608 10.095C136.984 9.30167 138.536 8.905 140.263 8.905C142.223 8.905 143.821 9.34833 145.058 10.235C146.294 11.1217 147.146 12.3817 147.613 14.015C148.103 15.625 148.208 17.5033 147.928 19.65H136.623C136.763 20.5367 137.229 21.2833 138.023 21.89C138.816 22.4733 139.901 22.765 141.278 22.765C141.908 22.765 142.573 22.6367 143.273 22.38C143.973 22.1 144.568 21.6917 145.058 21.155L148.033 24.305C147.263 25.2383 146.306 25.985 145.163 26.545C144.043 27.0817 142.608 27.35 140.858 27.35ZM140.368 12.79C139.434 12.79 138.641 13.07 137.988 13.63C137.358 14.19 136.938 14.9717 136.728 15.975H143.413C143.436 14.8783 143.168 14.0733 142.608 13.56C142.071 13.0467 141.324 12.79 140.368 12.79ZM151.213 27V9.185H156.533L156.288 13C157.012 11.6933 157.933 10.69 159.053 9.99C160.197 9.26667 161.468 8.905 162.868 8.905C164.992 8.905 166.578 9.62833 167.628 11.075C168.678 12.4983 169.192 14.5517 169.168 17.235L169.098 27H163.743L163.813 17.62C163.837 16.4067 163.65 15.485 163.253 14.855C162.88 14.2017 162.273 13.875 161.433 13.875C160.733 13.875 160.092 14.085 159.508 14.505C158.925 14.9017 158.412 15.59 157.968 16.57C157.548 17.55 157.21 18.8917 156.953 20.595C156.697 22.2983 156.557 24.4333 156.533 27H151.213ZM181.735 8.905C184.512 8.905 186.682 9.69833 188.245 11.285C189.832 12.8717 190.625 15.0183 190.625 17.725C190.625 19.5683 190.228 21.2133 189.435 22.66C188.642 24.1067 187.522 25.25 186.075 26.09C184.628 26.93 182.925 27.35 180.965 27.35C178.212 27.35 176.042 26.5567 174.455 24.97C172.892 23.3833 172.11 21.2483 172.11 18.565C172.11 16.6983 172.507 15.0417 173.3 13.595C174.093 12.1483 175.213 11.005 176.66 10.165C178.107 9.325 179.798 8.905 181.735 8.905ZM181.21 22.695C182.4 22.695 183.345 22.2517 184.045 21.365C184.768 20.455 185.13 19.2417 185.13 17.725C185.13 16.4183 184.815 15.4033 184.185 14.68C183.555 13.9333 182.692 13.56 181.595 13.56C180.382 13.56 179.413 14.015 178.69 14.925C177.99 15.8117 177.64 17.0133 177.64 18.53C177.64 19.8367 177.943 20.8633 178.55 21.61C179.18 22.3333 180.067 22.695 181.21 22.695ZM205.781 9.185H211.101L204.556 27H196.926L191.326 9.185H197.136L201.056 22.59L205.781 9.185ZM229.451 9.255V27H224.061L224.236 24.34C222.952 26.3467 221.051 27.35 218.531 27.35C216.944 27.35 215.591 26.9883 214.471 26.265C213.351 25.5417 212.499 24.5383 211.916 23.255C211.332 21.9717 211.041 20.5017 211.041 18.845C211.041 16.8617 211.449 15.1233 212.266 13.63C213.082 12.1367 214.179 10.9817 215.556 10.165C216.932 9.325 218.472 8.905 220.176 8.905C221.296 8.905 222.287 9.13833 223.151 9.605C224.014 10.0483 224.679 10.6433 225.146 11.39L225.601 9.255H229.451ZM220.701 13.56C219.417 13.56 218.402 14.0383 217.656 14.995C216.932 15.9517 216.571 17.1767 216.571 18.67C216.571 19.9533 216.851 20.945 217.411 21.645C217.994 22.345 218.776 22.695 219.756 22.695C220.946 22.695 221.961 22.205 222.801 21.225C223.664 20.245 224.096 18.9617 224.096 17.375C224.096 16.185 223.792 15.2517 223.186 14.575C222.579 13.8983 221.751 13.56 220.701 13.56ZM241.601 27.35C239.408 27.35 237.67 26.7433 236.386 25.53C235.103 24.2933 234.473 22.6717 234.496 20.665L234.636 13.63H231.696V9.185H234.706L234.741 5.545H240.061L240.026 9.185H245.591V13.63H239.956L239.851 20.07C239.851 20.91 240.073 21.5633 240.516 22.03C240.96 22.4967 241.625 22.73 242.511 22.73C243.025 22.73 243.515 22.6717 243.981 22.555C244.471 22.415 244.973 22.1583 245.486 21.785L247.026 25.88C245.836 26.86 244.028 27.35 241.601 27.35ZM256.93 8.905C259.707 8.905 261.877 9.69833 263.44 11.285C265.027 12.8717 265.82 15.0183 265.82 17.725C265.82 19.5683 265.424 21.2133 264.63 22.66C263.837 24.1067 262.717 25.25 261.27 26.09C259.824 26.93 258.12 27.35 256.16 27.35C253.407 27.35 251.237 26.5567 249.65 24.97C248.087 23.3833 247.305 21.2483 247.305 18.565C247.305 16.6983 247.702 15.0417 248.495 13.595C249.289 12.1483 250.409 11.005 251.855 10.165C253.302 9.325 254.994 8.905 256.93 8.905ZM256.405 22.695C257.595 22.695 258.54 22.2517 259.24 21.365C259.964 20.455 260.325 19.2417 260.325 17.725C260.325 16.4183 260.01 15.4033 259.38 14.68C258.75 13.9333 257.887 13.56 256.79 13.56C255.577 13.56 254.609 14.015 253.885 14.925C253.185 15.8117 252.835 17.0133 252.835 18.53C252.835 19.8367 253.139 20.8633 253.745 21.61C254.375 22.3333 255.262 22.695 256.405 22.695Z" fill="black"/>
</svg>
