<svg fill="#FFFFFF" xmlns="http://www.w3.org/2000/svg"  viewBox="0 0 50 50" width="100px" height="100px"><path d="M 25 3 C 12.317 3 2 12.645 2 24.5 C 1.898 39.711 18.563547 49.685094 32.935547 44.746094 C 33.645547 44.502094 33.860266 43.598219 33.322266 43.074219 L 26.351562 36.265625 C 26.149562 36.068625 25.872797 35.974234 25.591797 35.990234 C 19.332797 36.336234 13.979 31.07 14 24.5 C 14 18.159 18.935 13 25 13 C 31.29 12.954 36.325141 18.644844 35.994141 25.089844 C 35.979141 25.379844 36.083016 25.661281 36.291016 25.863281 L 44.390625 33.689453 C 44.886625 34.168453 45.697047 34.008672 45.998047 33.388672 C 52.862047 19.252672 41.365 2.792 25 3 z M 22 21 C 21.447 21 21 21.447 21 22 L 21 27.728516 C 21 27.997516 21.108781 28.255359 21.300781 28.443359 L 27 34.03125 L 27 27 L 34.654297 27 L 28.771484 21.283203 C 28.583484 21.102203 28.334219 21 28.074219 21 L 22 21 z M 37.220703 29.492188 L 29.5 29.5 L 29.5 36.482422 L 39.9375 46.714844 C 40.1255 46.898844 40.374719 47 40.636719 47 L 47 47 C 47.553 47 48 46.553 48 46 L 48 40.390625 C 48 40.119625 47.891266 39.860828 47.697266 39.673828 L 37.220703 29.492188 z"/></svg>