<svg width="100" height="100" viewBox="0 0 100 100" fill="none" xmlns="http://www.w3.org/2000/svg">
<g clip-path="url(#clip0_26_3)">
<path d="M41.1473 56.5206L53.6605 68.8789V54.0797H67.9553L56.0724 42.3486H41.1473V56.5206Z" fill="#EE7913"/>
<path d="M83.7938 98.658H99.0208V84.9185L73.8967 60.3363H59.9171V74.7327L83.7938 98.658Z" fill="url(#paint0_linear_26_3)"/>
<path d="M53.6605 68.8789L59.9171 74.7327V60.3363H73.8967L67.9553 54.0797H53.6605V68.8789Z" fill="#F0E64A"/>
<path d="M53.9029 79.049C52.9918 79.2382 52.5195 79.1718 50.2389 79.1718C33.9202 79.1718 20.0415 65.7529 20.0415 48.3533C20.0415 30.9537 33.7676 17.8313 50.2389 17.8313C66.7102 17.8313 79.8272 30.9545 79.8272 48.3533C79.8272 51.1837 79.4745 53.9053 78.823 56.4853L93.9272 71.588C97.8211 64.7636 100 56.831 100 48.2376C100 21.421 78.6001 1.34204 49.9347 1.34204C21.3999 1.34126 4.76837e-07 21.2881 4.76837e-07 48.2368C4.76837e-07 75.3162 21.3999 95.6603 49.9339 95.6603C57.2987 95.6603 62.5011 94.5114 67.9545 92.7189L53.9029 79.049Z" fill="url(#paint1_linear_26_3)"/>
<path opacity="0.15" d="M99.0208 84.9185V98.658L41.5149 42.3486H56.0724L99.0208 84.9185Z" fill="white"/>
</g>
<defs>
<linearGradient id="paint0_linear_26_3" x1="79.7755" y1="99.9804" x2="78.3079" y2="3.49712" gradientUnits="userSpaceOnUse">
<stop stop-color="#589632"/>
<stop offset="1" stop-color="#93B023"/>
</linearGradient>
<linearGradient id="paint1_linear_26_3" x1="50.7898" y1="100.195" x2="49.3277" y2="4.0639" gradientUnits="userSpaceOnUse">
<stop stop-color="#589632"/>
<stop offset="1" stop-color="#93B023"/>
</linearGradient>
<clipPath id="clip0_26_3">
<rect width="100" height="100" fill="white"/>
</clipPath>
</defs>
</svg>
