<svg width="24" height="24" viewBox="0 0 24 24" fill="none" xmlns="http://www.w3.org/2000/svg">
<g clip-path="url(#clip0_33_19)">
<path d="M11.1 1.5C8.515 6.15 6.28 10.965 4.39 15.94C4.235 16.345 4.1 16.71 3.985 17.025C3.685 17.83 3.515 18.305 3.465 18.385C3.58 17.97 3.7 17.53 3.825 17.085C3.915 16.77 4.005 16.45 4.095 16.125C4.795 13.675 5.72 11.06 6.325 9.285C7.2325 6.79 8.3005 4.369 9.533 2.0215C9.7015 1.7005 10.0375 1.5 10.4005 1.5H11.1Z" fill="#942D32"/>
<path d="M6.76 15.05C7.42 13.845 11.715 5.075 12.005 4.54C12.07 4.415 12.15 4.335 12.24 4.335C12.33 4.335 12.43 4.41 12.54 4.595C12.74 4.93 14.63 8.84 15.24 10.21C14.64 10.515 8.13 13.97 6.76 15.05ZM21.42 22.485C21.425 22.485 21.425 22.485 21.43 22.48C21.73 22.26 21.885 21.865 21.78 21.48C21.705 21.21 21.63 20.945 21.58 20.82C21.53 20.685 21.365 20.055 21.115 19.125C20.81 18.23 20.485 17.33 20.145 16.43C19.72 15.32 19.275 14.215 18.825 13.14C18.32 11.935 17.81 10.765 17.31 9.655C15.55 5.76 13.93 2.62 13.345 1.5H11.1C8.515 6.15 6.28 10.965 4.39 15.94C4.235 16.345 4.1 16.71 3.985 17.025C3.685 17.825 3.515 18.305 3.465 18.385L3.4 18.64C3.08 19.805 2.82 20.82 2.655 21.54C2.575 21.89 2.705 22.24 2.965 22.46C3.19 22.56 3.46 22.66 3.77 22.74C4.07 21.73 5.08 19.17 5.34 18.485L5.365 18.43V18.425C5.54 17.95 5.84 17.25 6.095 16.565C9.515 15.195 13.025 14.125 16.63 13.365C17.235 14.665 17.89 15.99 18.135 16.53C18.145 16.545 18.15 16.555 18.155 16.57C18.16 16.58 18.17 16.595 18.17 16.605C18.175 16.615 18.18 16.63 18.185 16.64C18.2 16.67 18.21 16.695 18.22 16.715C18.49 17.335 19.765 19.93 20.15 20.845C20.32 21.245 20.475 21.685 20.6 22.05C20.615 22.09 20.63 22.13 20.64 22.17C20.705 22.365 20.76 22.54 20.8 22.66C20.8 22.67 20.805 22.68 20.805 22.685H20.81L21.42 22.485Z" fill="url(#paint0_linear_33_19)"/>
<path d="M21.115 19.125C20.81 18.23 20.485 17.33 20.145 16.43C19.72 15.32 19.275 14.215 18.825 13.14C18.32 11.935 17.81 10.765 17.31 9.655C15.55 5.76 13.93 2.62 13.34 1.5H13.809C14.242 1.5 14.646 1.731 14.8575 2.109C15.7415 3.69 16.5155 5.323 17.18 7.015C17.445 7.655 17.795 8.435 18.085 9.3C18.475 10.455 19.065 11.76 19.445 13.06C19.78 14.215 20.1 15.365 20.385 16.415C20.67 17.445 20.92 18.38 21.115 19.125Z" fill="#E02B2B"/>
<path d="M15.24 10.21C14.705 10.51 14.425 10.69 13.815 11.005C13.23 9.38001 12.71 7.97001 12.57 7.63501C12.37 7.16001 12.055 7.20501 11.885 7.69501C10.95 10.335 10.235 12.06 9.835 13.16C8.515 13.89 7.715 14.47 6.76 15.055H6.755C7.415 13.855 11.715 5.05501 12.005 4.54001L12 4.53501C12.13 4.31501 12.2 4.22501 12.26 4.22501C12.345 4.22501 12.4 4.39001 12.54 4.59501C12.765 4.93001 14.635 8.85501 15.24 10.21Z" fill="url(#paint1_linear_33_19)"/>
<path d="M18.14 16.53C17.395 16.595 16.845 16.68 15.865 16.785L15.81 16.79C13.795 17.015 11.305 17.34 8.44999 17.82L8.15999 17.865C7.17499 18.035 6.42999 18.22 5.36499 18.425C5.54499 17.945 5.83999 17.24 6.09499 16.57V16.565C9.49499 15.14 13.01 14.07 16.63 13.365C17.235 14.665 17.89 15.99 18.14 16.53Z" fill="url(#paint2_linear_33_19)"/>
<path d="M8.15999 17.87C8.04999 18.15 7.94499 18.43 7.83499 18.705C7.74999 18.925 7.66499 19.145 7.57999 19.36C7.24499 20.25 6.93999 21.07 6.68999 21.725C6.63999 21.875 6.58499 22.015 6.53999 22.145C6.44999 22.38 6.37499 22.585 6.30999 22.755C5.75999 22.895 5.27499 22.915 4.91499 22.905C4.90999 22.91 4.90499 22.91 4.90499 22.905C4.86999 22.905 4.82999 22.9 4.79499 22.9L4.62499 22.885H4.60999C4.57999 22.885 4.54999 22.885 4.52499 22.88C4.51999 22.88 4.50999 22.88 4.50499 22.875C4.23999 22.85 3.99499 22.8 3.76999 22.74C4.06999 21.73 5.07999 19.17 5.33999 18.485L5.36499 18.43C6.42999 18.22 7.17499 18.035 8.15999 17.87Z" fill="url(#paint3_linear_33_19)"/>
<path d="M20.81 22.685H20.805C20.43 22.775 20.155 22.785 19.615 22.795C18.96 22.815 18.575 22.82 18.16 22.705C18.06 22.43 17.945 22.11 17.81 21.765C17.805 21.76 17.805 21.75 17.805 21.745C17.68 21.405 17.535 21.03 17.385 20.64C17.285 20.385 17.18 20.115 17.07 19.835C16.855 19.285 16.625 18.705 16.395 18.115C16.22 17.675 16.045 17.23 15.865 16.785C16.845 16.675 17.39 16.59 18.135 16.53H18.14C18.15 16.555 18.165 16.585 18.17 16.605C18.175 16.615 18.18 16.63 18.185 16.64C18.2 16.67 18.21 16.695 18.22 16.715C18.49 17.335 19.765 19.93 20.15 20.845C20.32 21.245 20.475 21.685 20.6 22.05C20.615 22.09 20.63 22.13 20.64 22.17C20.705 22.365 20.76 22.54 20.8 22.66C20.805 22.67 20.805 22.68 20.81 22.685Z" fill="url(#paint4_linear_33_19)"/>
<path d="M18.15 22.705C18.095 22.69 18.04 22.67 17.98 22.65C17.765 22.575 17.595 22.485 17.485 22.43L17.48 22.425L17.43 22.39C17.105 22.17 16.895 21.815 16.865 21.42C16.835 21.01 16.775 20.6 16.69 20.195C16.455 19.045 16.16 17.91 15.81 16.79L15.86 16.785C16.275 17.82 16.69 18.87 17.07 19.835C17.18 20.115 17.285 20.385 17.385 20.64C17.69 21.44 17.955 22.15 18.15 22.705Z" fill="#A12930"/>
<path d="M8.45 17.82C8.32 18.49 8.22 19.05 8.185 19.195C8.13 19.415 8.085 20.42 8.06 21.145C8.04 21.625 7.785 22.065 7.38 22.315L7.065 22.51C6.92 22.57 6.76 22.63 6.595 22.68C6.5 22.71 6.405 22.735 6.31 22.755C6.375 22.585 6.45 22.38 6.54 22.145C6.585 22.015 6.64 21.875 6.69 21.725C6.94 21.07 7.245 20.25 7.58 19.36C7.665 19.145 7.75 18.925 7.835 18.705C7.945 18.43 8.05 18.15 8.16 17.87L8.45 17.82Z" fill="#A12930"/>
</g>
<defs>
<linearGradient id="paint0_linear_33_19" x1="16.2025" y1="1.405" x2="11.4985" y2="25.432" gradientUnits="userSpaceOnUse">
<stop offset="0.457" stop-color="#CB2123"/>
<stop offset="1" stop-color="#752425"/>
</linearGradient>
<linearGradient id="paint1_linear_33_19" x1="10.9765" y1="13.1385" x2="11.2315" y2="7.01101" gradientUnits="userSpaceOnUse">
<stop offset="0.1" stop-color="#B75E5A"/>
<stop offset="0.949" stop-color="#6C272D"/>
</linearGradient>
<linearGradient id="paint2_linear_33_19" x1="15.3715" y1="15.332" x2="7.45699" y2="18.2045" gradientUnits="userSpaceOnUse">
<stop stop-color="#A32424"/>
<stop offset="1" stop-color="#752425"/>
</linearGradient>
<linearGradient id="paint3_linear_33_19" x1="5.02799" y1="23.0135" x2="7.04049" y2="17.1645" gradientUnits="userSpaceOnUse">
<stop offset="0.343" stop-color="#D77670"/>
<stop offset="0.949" stop-color="#A62224"/>
</linearGradient>
<linearGradient id="paint4_linear_33_19" x1="20.253" y1="23.4675" x2="16.127" y2="15.9135" gradientUnits="userSpaceOnUse">
<stop offset="0.343" stop-color="#D77670"/>
<stop offset="0.949" stop-color="#A62224"/>
</linearGradient>
<clipPath id="clip0_33_19">
<rect width="24" height="24" fill="white"/>
</clipPath>
</defs>
</svg>
