<svg width="24" height="24" viewBox="0 0 24 24" fill="none" xmlns="http://www.w3.org/2000/svg">
<path d="M3 5C3 3.8955 3.8955 3 5 3H19C20.1045 3 21 3.8955 21 5V19C21 20.1045 20.1045 21 19 21H5C3.8955 21 3 20.1045 3 19V5Z" fill="#03A9F4"/>
<path d="M10.008 9.58701H9.00702V11.804H9.99352C10.267 11.804 10.4785 11.7145 10.6285 11.5355C10.7785 11.3565 10.853 11.096 10.853 10.754C10.853 10.399 10.7765 10.117 10.6235 9.90701C10.4705 9.69701 10.265 9.59051 10.008 9.58701Z" fill="#020F16"/>
<path d="M4.5 4.5V19.5H19.5V4.5H4.5ZM11.6825 12.3945C11.2695 12.7985 10.6965 13 9.964 13H9.007V15.5H7.5715V8.3905H9.9935C10.6965 8.3905 11.2575 8.609 11.6755 9.045C12.0935 9.481 12.303 10.0475 12.303 10.744C12.303 11.4405 12.096 11.9905 11.6825 12.3945ZM16.341 15.168C15.9865 15.4545 15.5205 15.5975 14.9445 15.5975C14.557 15.5975 14.215 15.522 13.919 15.3705C13.623 15.219 13.3905 15.008 13.223 14.738C13.0555 14.468 12.9715 14.1765 12.9715 13.864H14.285C14.292 14.1045 14.3475 14.2855 14.4535 14.406C14.5595 14.5265 14.7325 14.5865 14.9735 14.5865C15.3445 14.5865 15.53 14.419 15.53 14.0835C15.53 13.9665 15.474 13.858 15.3615 13.759C15.249 13.66 15 13.526 14.6125 13.3565C14.043 13.1255 13.6515 12.8865 13.438 12.6385C13.2245 12.3905 13.118 12.0835 13.118 11.7155C13.118 11.253 13.285 10.8715 13.6185 10.5705C13.952 10.2695 14.3945 10.119 14.944 10.119C15.523 10.119 15.987 10.269 16.3355 10.568C16.684 10.867 16.858 11.2695 16.858 11.774H15.476C15.476 11.3445 15.2975 11.1295 14.939 11.1295C14.7925 11.1295 14.6725 11.175 14.5775 11.266C14.4825 11.357 14.436 11.4845 14.436 11.647C14.436 11.764 14.488 11.8675 14.5925 11.957C14.697 12.0465 14.942 12.1745 15.33 12.3405C15.8935 12.549 16.291 12.781 16.524 13.0365C16.757 13.292 16.873 13.6235 16.873 14.03C16.873 14.5025 16.6955 14.8815 16.341 15.168Z" fill="#020F16"/>
</svg>
