<svg width="24" height="24" viewBox="0 0 24 24" fill="none" xmlns="http://www.w3.org/2000/svg">
<path d="M14.0715 4.029L18.95 7.755L17.831 16.77L7.9725 19.6955L5.929 13.295L4.6735 5.3355L14.0715 4.029ZM14.4705 2.5L3 4.092L4.507 13.6335L7.019 21.5L19.1585 17.901L20.5 7.1025L14.4705 2.5Z" fill="#D32F2F"/>
<path d="M14.6385 8.2735L12.128 5.5965L4.42151 6.6875L4.92601 12.796L7.52101 20.663L18.3235 17.232L19.7475 7.3575L14.6385 8.2735ZM6.66551 16.754L5.99351 14.6005L9.92001 13.836L10.9735 15.7495L6.66551 16.754ZM10.6395 12.3515C10.591 12.496 9.58601 10.629 9.58601 10.629L5.94651 11.3475L5.18001 9.58L12.268 8.381L14.805 11.444C14.8035 11.4435 10.6865 12.207 10.6395 12.3515Z" fill="#D32F2F"/>
</svg>
