<svg width="158" height="157" viewBox="0 0 158 157" fill="none" xmlns="http://www.w3.org/2000/svg">
<g clip-path="url(#clip0_37_6)">
<path d="M42.5385 144.923C40.9268 144.923 39.3811 145.559 38.2414 146.692C37.1018 147.824 36.4615 149.36 36.4615 150.962C36.4615 152.563 37.1018 154.099 38.2414 155.231C39.3811 156.364 40.9268 157 42.5385 157C44.1502 157 45.6958 156.364 46.8355 155.231C47.9751 154.099 48.6154 152.563 48.6154 150.962C48.6154 149.36 47.9751 147.824 46.8355 146.692C45.6958 145.559 44.1502 144.923 42.5385 144.923ZM6.07692 144.923C4.46522 144.923 2.91953 145.559 1.77989 146.692C0.640245 147.824 0 149.36 0 150.962C0 152.563 0.640245 154.099 1.77989 155.231C2.91953 156.364 4.46522 157 6.07692 157C7.68862 157 9.23431 156.364 10.374 155.231C11.5136 154.099 12.1538 152.563 12.1538 150.962C12.1538 149.36 11.5136 147.824 10.374 146.692C9.23431 145.559 7.68862 144.923 6.07692 144.923ZM115.462 108.692C113.85 108.692 112.304 109.328 111.164 110.461C110.025 111.593 109.385 113.129 109.385 114.731C109.385 116.332 110.025 117.868 111.164 119.001C112.304 120.133 113.85 120.769 115.462 120.769C117.073 120.769 118.619 120.133 119.759 119.001C120.898 117.868 121.538 116.332 121.538 114.731C121.538 113.129 120.898 111.593 119.759 110.461C118.619 109.328 117.073 108.692 115.462 108.692ZM79 108.692C77.3883 108.692 75.8426 109.328 74.703 110.461C73.5633 111.593 72.9231 113.129 72.9231 114.731C72.9231 116.332 73.5633 117.868 74.703 119.001C75.8426 120.133 77.3883 120.769 79 120.769C80.6117 120.769 82.1574 120.133 83.297 119.001C84.4367 117.868 85.0769 116.332 85.0769 114.731C85.0769 113.129 84.4367 111.593 83.297 110.461C82.1574 109.328 80.6117 108.692 79 108.692ZM42.5385 108.692C40.9268 108.692 39.3811 109.328 38.2414 110.461C37.1018 111.593 36.4615 113.129 36.4615 114.731C36.4615 116.332 37.1018 117.868 38.2414 119.001C39.3811 120.133 40.9268 120.769 42.5385 120.769C44.1502 120.769 45.6958 120.133 46.8355 119.001C47.9751 117.868 48.6154 116.332 48.6154 114.731C48.6154 113.129 47.9751 111.593 46.8355 110.461C45.6958 109.328 44.1502 108.692 42.5385 108.692ZM6.07692 108.692C4.46522 108.692 2.91953 109.328 1.77989 110.461C0.640245 111.593 0 113.129 0 114.731C0 116.332 0.640245 117.868 1.77989 119.001C2.91953 120.133 4.46522 120.769 6.07692 120.769C7.68862 120.769 9.23431 120.133 10.374 119.001C11.5136 117.868 12.1538 116.332 12.1538 114.731C12.1538 113.129 11.5136 111.593 10.374 110.461C9.23431 109.328 7.68862 108.692 6.07692 108.692ZM115.462 72.4615C113.85 72.4615 112.304 73.0977 111.164 74.2302C110.025 75.3626 109.385 76.8985 109.385 78.5C109.385 80.1015 110.025 81.6374 111.164 82.7698C112.304 83.9023 113.85 84.5385 115.462 84.5385C117.073 84.5385 118.619 83.9023 119.759 82.7698C120.898 81.6374 121.538 80.1015 121.538 78.5C121.538 76.8985 120.898 75.3626 119.759 74.2302C118.619 73.0977 117.073 72.4615 115.462 72.4615ZM79 72.4615C77.3883 72.4615 75.8426 73.0977 74.703 74.2302C73.5633 75.3626 72.9231 76.8985 72.9231 78.5C72.9231 80.1015 73.5633 81.6374 74.703 82.7698C75.8426 83.9023 77.3883 84.5385 79 84.5385C80.6117 84.5385 82.1574 83.9023 83.297 82.7698C84.4367 81.6374 85.0769 80.1015 85.0769 78.5C85.0769 76.8985 84.4367 75.3626 83.297 74.2302C82.1574 73.0977 80.6117 72.4615 79 72.4615ZM42.5385 72.4615C40.9268 72.4615 39.3811 73.0977 38.2414 74.2302C37.1018 75.3626 36.4615 76.8985 36.4615 78.5C36.4615 80.1015 37.1018 81.6374 38.2414 82.7698C39.3811 83.9023 40.9268 84.5385 42.5385 84.5385C44.1502 84.5385 45.6958 83.9023 46.8355 82.7698C47.9751 81.6374 48.6154 80.1015 48.6154 78.5C48.6154 76.8985 47.9751 75.3626 46.8355 74.2302C45.6958 73.0977 44.1502 72.4615 42.5385 72.4615ZM6.07692 72.4615C4.46522 72.4615 2.91953 73.0977 1.77989 74.2302C0.640245 75.3626 0 76.8985 0 78.5C0 80.1015 0.640245 81.6374 1.77989 82.7698C2.91953 83.9023 4.46522 84.5385 6.07692 84.5385C7.68862 84.5385 9.23431 83.9023 10.374 82.7698C11.5136 81.6374 12.1538 80.1015 12.1538 78.5C12.1538 76.8985 11.5136 75.3626 10.374 74.2302C9.23431 73.0977 7.68862 72.4615 6.07692 72.4615ZM151.923 36.2308C150.311 36.2308 148.766 36.867 147.626 37.9994C146.486 39.1318 145.846 40.6677 145.846 42.2692C145.846 43.8707 146.486 45.4066 147.626 46.5391C148.766 47.6715 150.311 48.3077 151.923 48.3077C153.535 48.3077 155.08 47.6715 156.22 46.5391C157.36 45.4066 158 43.8707 158 42.2692C158 40.6677 157.36 39.1318 156.22 37.9994C155.08 36.867 153.535 36.2308 151.923 36.2308ZM115.462 36.2308C113.85 36.2308 112.304 36.867 111.164 37.9994C110.025 39.1318 109.385 40.6677 109.385 42.2692C109.385 43.8707 110.025 45.4066 111.164 46.5391C112.304 47.6715 113.85 48.3077 115.462 48.3077C117.073 48.3077 118.619 47.6715 119.759 46.5391C120.898 45.4066 121.538 43.8707 121.538 42.2692C121.538 40.6677 120.898 39.1318 119.759 37.9994C118.619 36.867 117.073 36.2308 115.462 36.2308ZM79 36.2308C77.3883 36.2308 75.8426 36.867 74.703 37.9994C73.5633 39.1318 72.9231 40.6677 72.9231 42.2692C72.9231 43.8707 73.5633 45.4066 74.703 46.5391C75.8426 47.6715 77.3883 48.3077 79 48.3077C80.6117 48.3077 82.1574 47.6715 83.297 46.5391C84.4367 45.4066 85.0769 43.8707 85.0769 42.2692C85.0769 40.6677 84.4367 39.1318 83.297 37.9994C82.1574 36.867 80.6117 36.2308 79 36.2308ZM42.5385 36.2308C40.9268 36.2308 39.3811 36.867 38.2414 37.9994C37.1018 39.1318 36.4615 40.6677 36.4615 42.2692C36.4615 43.8707 37.1018 45.4066 38.2414 46.5391C39.3811 47.6715 40.9268 48.3077 42.5385 48.3077C44.1502 48.3077 45.6958 47.6715 46.8355 46.5391C47.9751 45.4066 48.6154 43.8707 48.6154 42.2692C48.6154 40.6677 47.9751 39.1318 46.8355 37.9994C45.6958 36.867 44.1502 36.2308 42.5385 36.2308ZM6.07692 36.2308C4.46522 36.2308 2.91953 36.867 1.77989 37.9994C0.640245 39.1318 0 40.6677 0 42.2692C0 43.8707 0.640245 45.4066 1.77989 46.5391C2.91953 47.6715 4.46522 48.3077 6.07692 48.3077C7.68862 48.3077 9.23431 47.6715 10.374 46.5391C11.5136 45.4066 12.1538 43.8707 12.1538 42.2692C12.1538 40.6677 11.5136 39.1318 10.374 37.9994C9.23431 36.867 7.68862 36.2308 6.07692 36.2308ZM151.923 0C150.311 0 148.766 0.636193 147.626 1.76862C146.486 2.90106 145.846 4.43696 145.846 6.03846C145.846 7.63996 146.486 9.17587 147.626 10.3083C148.766 11.4407 150.311 12.0769 151.923 12.0769C153.535 12.0769 155.08 11.4407 156.22 10.3083C157.36 9.17587 158 7.63996 158 6.03846C158 4.43696 157.36 2.90106 156.22 1.76862C155.08 0.636193 153.535 0 151.923 0ZM115.462 0C113.85 0 112.304 0.636193 111.164 1.76862C110.025 2.90106 109.385 4.43696 109.385 6.03846C109.385 7.63996 110.025 9.17587 111.164 10.3083C112.304 11.4407 113.85 12.0769 115.462 12.0769C117.073 12.0769 118.619 11.4407 119.759 10.3083C120.898 9.17587 121.538 7.63996 121.538 6.03846C121.538 4.43696 120.898 2.90106 119.759 1.76862C118.619 0.636193 117.073 0 115.462 0ZM79 0C77.3883 0 75.8426 0.636193 74.703 1.76862C73.5633 2.90106 72.9231 4.43696 72.9231 6.03846C72.9231 7.63996 73.5633 9.17587 74.703 10.3083C75.8426 11.4407 77.3883 12.0769 79 12.0769C80.6117 12.0769 82.1574 11.4407 83.297 10.3083C84.4367 9.17587 85.0769 7.63996 85.0769 6.03846C85.0769 4.43696 84.4367 2.90106 83.297 1.76862C82.1574 0.636193 80.6117 0 79 0ZM42.5385 0C40.9268 0 39.3811 0.636193 38.2414 1.76862C37.1018 2.90106 36.4615 4.43696 36.4615 6.03846C36.4615 7.63996 37.1018 9.17587 38.2414 10.3083C39.3811 11.4407 40.9268 12.0769 42.5385 12.0769C44.1502 12.0769 45.6958 11.4407 46.8355 10.3083C47.9751 9.17587 48.6154 7.63996 48.6154 6.03846C48.6154 4.43696 47.9751 2.90106 46.8355 1.76862C45.6958 0.636193 44.1502 0 42.5385 0ZM6.07692 0C4.46522 0 2.91953 0.636193 1.77989 1.76862C0.640245 2.90106 0 4.43696 0 6.03846C0 7.63996 0.640245 9.17587 1.77989 10.3083C2.91953 11.4407 4.46522 12.0769 6.07692 12.0769C7.68862 12.0769 9.23431 11.4407 10.374 10.3083C11.5136 9.17587 12.1538 7.63996 12.1538 6.03846C12.1538 4.43696 11.5136 2.90106 10.374 1.76862C9.23431 0.636193 7.68862 0 6.07692 0Z" fill="#4C7840" fill-opacity="0.5"/>
</g>
<defs>
<clipPath id="clip0_37_6">
<rect width="158" height="157" fill="white"/>
</clipPath>
</defs>
</svg>
