<svg width="157" height="157" viewBox="0 0 157 157" fill="none" xmlns="http://www.w3.org/2000/svg">
<g clip-path="url(#clip0_37_4)">
<path d="M12.0769 42.2692C12.0769 40.6677 11.4407 39.1318 10.3083 37.9994C9.17587 36.867 7.63996 36.2308 6.03846 36.2308C4.43696 36.2308 2.90106 36.867 1.76862 37.9994C0.636193 39.1318 0 40.6677 0 42.2692C0 43.8707 0.636193 45.4066 1.76862 46.5391C2.90106 47.6715 4.43696 48.3077 6.03846 48.3077C7.63996 48.3077 9.17587 47.6715 10.3083 46.5391C11.4407 45.4066 12.0769 43.8707 12.0769 42.2692ZM12.0769 6.03846C12.0769 4.43696 11.4407 2.90106 10.3083 1.76862C9.17587 0.636193 7.63996 0 6.03846 0C4.43696 0 2.90106 0.636193 1.76862 1.76862C0.636193 2.90106 0 4.43696 0 6.03846C0 7.63996 0.636193 9.17587 1.76862 10.3083C2.90106 11.4407 4.43696 12.0769 6.03846 12.0769C7.63996 12.0769 9.17587 11.4407 10.3083 10.3083C11.4407 9.17587 12.0769 7.63996 12.0769 6.03846ZM48.3077 114.731C48.3077 113.129 47.6715 111.593 46.5391 110.461C45.4066 109.328 43.8707 108.692 42.2692 108.692C40.6677 108.692 39.1318 109.328 37.9994 110.461C36.867 111.593 36.2308 113.129 36.2308 114.731C36.2308 116.332 36.867 117.868 37.9994 119.001C39.1318 120.133 40.6677 120.769 42.2692 120.769C43.8707 120.769 45.4066 120.133 46.5391 119.001C47.6715 117.868 48.3077 116.332 48.3077 114.731ZM48.3077 78.5C48.3077 76.8985 47.6715 75.3626 46.5391 74.2302C45.4066 73.0977 43.8707 72.4615 42.2692 72.4615C40.6677 72.4615 39.1318 73.0977 37.9994 74.2302C36.867 75.3626 36.2308 76.8985 36.2308 78.5C36.2308 80.1015 36.867 81.6374 37.9994 82.7698C39.1318 83.9023 40.6677 84.5385 42.2692 84.5385C43.8707 84.5385 45.4066 83.9023 46.5391 82.7698C47.6715 81.6374 48.3077 80.1015 48.3077 78.5ZM48.3077 42.2692C48.3077 40.6677 47.6715 39.1318 46.5391 37.9994C45.4066 36.867 43.8707 36.2308 42.2692 36.2308C40.6677 36.2308 39.1318 36.867 37.9994 37.9994C36.867 39.1318 36.2308 40.6677 36.2308 42.2692C36.2308 43.8707 36.867 45.4066 37.9994 46.5391C39.1318 47.6715 40.6677 48.3077 42.2692 48.3077C43.8707 48.3077 45.4066 47.6715 46.5391 46.5391C47.6715 45.4066 48.3077 43.8707 48.3077 42.2692ZM48.3077 6.03846C48.3077 4.43696 47.6715 2.90106 46.5391 1.76862C45.4066 0.636193 43.8707 0 42.2692 0C40.6677 0 39.1318 0.636193 37.9994 1.76862C36.867 2.90106 36.2308 4.43696 36.2308 6.03846C36.2308 7.63996 36.867 9.17587 37.9994 10.3083C39.1318 11.4407 40.6677 12.0769 42.2692 12.0769C43.8707 12.0769 45.4066 11.4407 46.5391 10.3083C47.6715 9.17587 48.3077 7.63996 48.3077 6.03846ZM84.5385 114.731C84.5385 113.129 83.9023 111.593 82.7698 110.461C81.6374 109.328 80.1015 108.692 78.5 108.692C76.8985 108.692 75.3626 109.328 74.2302 110.461C73.0977 111.593 72.4615 113.129 72.4615 114.731C72.4615 116.332 73.0977 117.868 74.2302 119.001C75.3626 120.133 76.8985 120.769 78.5 120.769C80.1015 120.769 81.6374 120.133 82.7698 119.001C83.9023 117.868 84.5385 116.332 84.5385 114.731ZM84.5385 78.5C84.5385 76.8985 83.9023 75.3626 82.7698 74.2302C81.6374 73.0977 80.1015 72.4615 78.5 72.4615C76.8985 72.4615 75.3626 73.0977 74.2302 74.2302C73.0977 75.3626 72.4615 76.8985 72.4615 78.5C72.4615 80.1015 73.0977 81.6374 74.2302 82.7698C75.3626 83.9023 76.8985 84.5385 78.5 84.5385C80.1015 84.5385 81.6374 83.9023 82.7698 82.7698C83.9023 81.6374 84.5385 80.1015 84.5385 78.5ZM84.5385 42.2692C84.5385 40.6677 83.9023 39.1318 82.7698 37.9994C81.6374 36.867 80.1015 36.2308 78.5 36.2308C76.8985 36.2308 75.3626 36.867 74.2302 37.9994C73.0977 39.1318 72.4615 40.6677 72.4615 42.2692C72.4615 43.8707 73.0977 45.4066 74.2302 46.5391C75.3626 47.6715 76.8985 48.3077 78.5 48.3077C80.1015 48.3077 81.6374 47.6715 82.7698 46.5391C83.9023 45.4066 84.5385 43.8707 84.5385 42.2692ZM84.5385 6.03846C84.5385 4.43696 83.9023 2.90106 82.7698 1.76862C81.6374 0.636193 80.1015 0 78.5 0C76.8985 0 75.3626 0.636193 74.2302 1.76862C73.0977 2.90106 72.4615 4.43696 72.4615 6.03846C72.4615 7.63996 73.0977 9.17587 74.2302 10.3083C75.3626 11.4407 76.8985 12.0769 78.5 12.0769C80.1015 12.0769 81.6374 11.4407 82.7698 10.3083C83.9023 9.17587 84.5385 7.63996 84.5385 6.03846ZM120.769 150.962C120.769 149.36 120.133 147.824 119.001 146.692C117.868 145.559 116.332 144.923 114.731 144.923C113.129 144.923 111.593 145.559 110.461 146.692C109.328 147.824 108.692 149.36 108.692 150.962C108.692 152.563 109.328 154.099 110.461 155.231C111.593 156.364 113.129 157 114.731 157C116.332 157 117.868 156.364 119.001 155.231C120.133 154.099 120.769 152.563 120.769 150.962ZM120.769 114.731C120.769 113.129 120.133 111.593 119.001 110.461C117.868 109.328 116.332 108.692 114.731 108.692C113.129 108.692 111.593 109.328 110.461 110.461C109.328 111.593 108.692 113.129 108.692 114.731C108.692 116.332 109.328 117.868 110.461 119.001C111.593 120.133 113.129 120.769 114.731 120.769C116.332 120.769 117.868 120.133 119.001 119.001C120.133 117.868 120.769 116.332 120.769 114.731ZM120.769 78.5C120.769 76.8985 120.133 75.3626 119.001 74.2302C117.868 73.0977 116.332 72.4615 114.731 72.4615C113.129 72.4615 111.593 73.0977 110.461 74.2302C109.328 75.3626 108.692 76.8985 108.692 78.5C108.692 80.1015 109.328 81.6374 110.461 82.7698C111.593 83.9023 113.129 84.5385 114.731 84.5385C116.332 84.5385 117.868 83.9023 119.001 82.7698C120.133 81.6374 120.769 80.1015 120.769 78.5ZM120.769 42.2692C120.769 40.6677 120.133 39.1318 119.001 37.9994C117.868 36.867 116.332 36.2308 114.731 36.2308C113.129 36.2308 111.593 36.867 110.461 37.9994C109.328 39.1318 108.692 40.6677 108.692 42.2692C108.692 43.8707 109.328 45.4066 110.461 46.5391C111.593 47.6715 113.129 48.3077 114.731 48.3077C116.332 48.3077 117.868 47.6715 119.001 46.5391C120.133 45.4066 120.769 43.8707 120.769 42.2692ZM120.769 6.03846C120.769 4.43696 120.133 2.90106 119.001 1.76862C117.868 0.636193 116.332 0 114.731 0C113.129 0 111.593 0.636193 110.461 1.76862C109.328 2.90106 108.692 4.43696 108.692 6.03846C108.692 7.63996 109.328 9.17587 110.461 10.3083C111.593 11.4407 113.129 12.0769 114.731 12.0769C116.332 12.0769 117.868 11.4407 119.001 10.3083C120.133 9.17587 120.769 7.63996 120.769 6.03846ZM157 150.962C157 149.36 156.364 147.824 155.231 146.692C154.099 145.559 152.563 144.923 150.962 144.923C149.36 144.923 147.824 145.559 146.692 146.692C145.559 147.824 144.923 149.36 144.923 150.962C144.923 152.563 145.559 154.099 146.692 155.231C147.824 156.364 149.36 157 150.962 157C152.563 157 154.099 156.364 155.231 155.231C156.364 154.099 157 152.563 157 150.962ZM157 114.731C157 113.129 156.364 111.593 155.231 110.461C154.099 109.328 152.563 108.692 150.962 108.692C149.36 108.692 147.824 109.328 146.692 110.461C145.559 111.593 144.923 113.129 144.923 114.731C144.923 116.332 145.559 117.868 146.692 119.001C147.824 120.133 149.36 120.769 150.962 120.769C152.563 120.769 154.099 120.133 155.231 119.001C156.364 117.868 157 116.332 157 114.731ZM157 78.5C157 76.8985 156.364 75.3626 155.231 74.2302C154.099 73.0977 152.563 72.4615 150.962 72.4615C149.36 72.4615 147.824 73.0977 146.692 74.2302C145.559 75.3626 144.923 76.8985 144.923 78.5C144.923 80.1015 145.559 81.6374 146.692 82.7698C147.824 83.9023 149.36 84.5385 150.962 84.5385C152.563 84.5385 154.099 83.9023 155.231 82.7698C156.364 81.6374 157 80.1015 157 78.5ZM157 42.2692C157 40.6677 156.364 39.1318 155.231 37.9994C154.099 36.867 152.563 36.2308 150.962 36.2308C149.36 36.2308 147.824 36.867 146.692 37.9994C145.559 39.1318 144.923 40.6677 144.923 42.2692C144.923 43.8707 145.559 45.4066 146.692 46.5391C147.824 47.6715 149.36 48.3077 150.962 48.3077C152.563 48.3077 154.099 47.6715 155.231 46.5391C156.364 45.4066 157 43.8707 157 42.2692ZM157 6.03846C157 4.43696 156.364 2.90106 155.231 1.76862C154.099 0.636193 152.563 0 150.962 0C149.36 0 147.824 0.636193 146.692 1.76862C145.559 2.90106 144.923 4.43696 144.923 6.03846C144.923 7.63996 145.559 9.17587 146.692 10.3083C147.824 11.4407 149.36 12.0769 150.962 12.0769C152.563 12.0769 154.099 11.4407 155.231 10.3083C156.364 9.17587 157 7.63996 157 6.03846Z" fill="#4C7840" fill-opacity="0.3"/>
</g>
<defs>
<clipPath id="clip0_37_4">
<rect width="157" height="157" fill="white"/>
</clipPath>
</defs>
</svg>
